<mxfile host="app.diagrams.net" modified="2023-08-31T17:44:55.080Z" agent="Mozilla/5.0 (Windows NT 10.0; Win64; x64; rv:109.0) Gecko/20100101 Firefox/117.0" version="21.7.0" etag="BgSKJq_i6Z4aX4rsBYg2" type="github">
  <diagram name="PÃ¡gina-1" id="3eSBQvzbl6Lkzq2RTtY8">
    <mxGraphModel>
      <root>
        <mxCell id="0" />
        <mxCell id="1" parent="0" />
      </root>
    </mxGraphModel>
  </diagram>
</mxfile>
